<?xml version="1.0" standalone="no"?>
<!DOCTYPE svg PUBLIC "-//W3C//DTD SVG 20010904//EN"
 "http://www.w3.org/TR/2001/REC-SVG-20010904/DTD/svg10.dtd">
<svg version="1.0" xmlns="http://www.w3.org/2000/svg"
 width="300.000000pt" height="110.000000pt" viewBox="0 0 300.000000 110.000000"
 preserveAspectRatio="xMidYMid meet">
<metadata>
Created by potrace 1.10, written by Peter Selinger 2001-2011
</metadata>
<g transform="translate(0.000000,110.000000) scale(0.100000,-0.100000)"
fill="#000000" stroke="none">
<path d="M101 827 c-6 -43 -14 -83 -17 -90 -3 -9 48 -11 226 -9 245 3 237 5
224 -45 -6 -23 -6 -23 -234 -23 l-227 0 -22 -122 c-12 -68 -28 -156 -35 -195
l-13 -73 91 0 92 0 12 88 c6 48 15 98 18 112 6 20 4 23 -7 13 -7 -7 -14 -18
-15 -25 -2 -7 -8 -42 -15 -78 -6 -36 -16 -70 -21 -77 -5 -6 -36 -13 -68 -15
l-59 -3 5 40 c7 48 10 67 29 165 22 120 27 140 34 141 17 3 151 7 280 9 108 2
148 6 158 16 19 18 20 74 2 85 -8 5 -105 9 -216 9 -124 0 -204 4 -208 10 -3 6
-3 10 2 10 4 0 9 21 11 47 2 26 5 50 8 55 3 4 113 8 244 8 l239 0 42 -41 41
-40 -7 -66 c-7 -69 -22 -113 -37 -113 -5 0 -6 -5 -3 -11 7 -11 -24 -45 -60
-66 -63 -37 -80 -39 -222 -36 -79 2 -143 -1 -143 -6 0 -15 36 -19 177 -17 118
2 144 5 178 23 82 43 120 105 131 215 8 79 -11 127 -63 160 -34 20 -47 21
-288 22 l-251 1 -13 -78z"/>
<path d="M798 818 l-15 -88 319 0 c175 0 318 1 318 3 0 1 7 40 15 87 8 47 15
86 15 87 0 1 -144 1 -319 0 l-319 -2 -14 -87z m590 63 l33 -1 -7 -52 c-3 -29
-13 -58 -21 -65 -11 -8 -94 -12 -293 -13 -316 -1 -302 -5 -277 80 l13 45 89 5
c75 4 333 5 463 1z"/>
<path d="M1636 895 c-55 -19 -107 -65 -134 -117 -31 -60 -32 -144 -3 -192 36
-57 68 -66 246 -66 l158 0 -7 -31 c-3 -17 -6 -34 -6 -38 0 -3 -103 -5 -228 -3
l-228 3 -13 -68 c-7 -38 -15 -78 -18 -90 l-5 -23 253 0 c235 0 256 1 296 21
81 39 120 105 129 222 8 86 -7 123 -59 156 -31 19 -49 21 -196 21 -88 0 -161
-4 -161 -9 0 -4 71 -6 158 -3 86 2 154 1 149 -4 -4 -4 7 -13 25 -18 19 -7 40
-24 51 -44 16 -28 18 -42 10 -105 -5 -39 -13 -71 -19 -70 -5 1 -9 -12 -8 -29
2 -23 -3 -32 -18 -36 -15 -4 -17 -7 -6 -13 9 -6 7 -9 -9 -9 -12 0 -25 -5 -29
-12 -4 -7 -3 -8 4 -4 7 4 12 4 12 1 0 -3 -19 -15 -42 -25 -39 -18 -67 -20
-278 -20 -136 0 -229 4 -221 9 10 7 10 10 1 13 -15 5 -5 78 10 78 6 0 10 7 10
15 0 11 12 15 48 16 26 0 122 1 214 2 112 1 171 6 179 14 6 6 13 25 15 42 6
52 -18 60 -180 60 -110 0 -148 4 -174 16 -17 9 -32 19 -32 21 0 3 5 2 10 -1 6
-3 10 -2 10 3 0 5 -9 12 -19 15 -38 9 -39 128 -3 187 18 29 58 70 69 71 5 1 7
5 6 9 -3 9 28 22 43 19 5 -1 11 0 14 1 3 1 262 3 577 5 l572 2 -2 -21 c-3 -29
-29 -63 -52 -67 -11 -3 -19 -9 -17 -14 7 -18 -70 -34 -174 -36 -72 -1 -109 -6
-118 -15 -14 -14 -19 -36 -62 -283 -13 -80 -27 -147 -30 -150 -2 -3 -35 -7
-72 -9 -37 -2 -62 0 -56 5 6 5 8 17 4 28 -4 11 -1 46 7 79 19 83 47 255 47
293 0 18 -4 36 -8 40 -13 13 -616 7 -628 -5 -7 -7 -8 -15 -3 -19 4 -5 10 -2
12 5 7 18 613 18 613 0 0 -7 -7 -49 -15 -93 -7 -44 -23 -134 -35 -200 -12 -66
-24 -131 -27 -144 -5 -20 -3 -23 11 -18 10 4 53 7 97 7 l79 0 0 28 c0 15 8 72
19 127 10 55 26 146 36 202 l18 101 127 4 c119 3 129 5 169 31 41 27 101 107
101 134 0 20 -1158 18 -1214 -2z"/>
<path d="M758 585 l-14 -75 241 0 241 0 15 75 15 75 -241 0 -242 0 -15 -75z
m459 10 c-2 -26 -8 -49 -12 -53 -3 -4 -101 -8 -216 -10 -166 -2 -209 0 -210
10 -3 27 2 54 13 76 11 22 14 22 221 22 l210 0 -6 -45z"/>
<path d="M721 380 c-6 -36 -14 -75 -17 -87 l-6 -22 321 -3 c209 -2 321 0 321
7 1 6 7 46 15 90 8 44 15 81 15 83 0 2 -144 2 -319 0 l-319 -3 -11 -65z m603
35 c17 -13 18 -18 6 -62 -8 -26 -18 -51 -24 -55 -13 -9 -521 -10 -554 -2 -20
6 -22 11 -15 43 4 20 7 44 7 54 0 9 4 17 9 17 4 0 6 3 4 8 -3 4 119 8 271 9
223 1 281 -1 296 -12z"/>
</g>
</svg>
